<?xml version="1.0" encoding="iso-8859-1"?>
<!-- Generator: Adobe Illustrator 19.0.0, SVG Export Plug-In . SVG Version: 6.00 Build 0)  -->
<svg version="1.1" id="Layer_1" xmlns="http://www.w3.org/2000/svg" xmlns:xlink="http://www.w3.org/1999/xlink" x="0px" y="0px"
	 viewBox="0 0 512 512" style="enable-background:new 0 0 512 512;" xml:space="preserve">
<path style="fill:#F29C1F;" d="M289.655,420.193l216.276-216.276c7.945-7.945,7.945-22.069,0-30.014l-16.772-16.772
	c-9.71-9.71-25.6-9.71-35.31,0L240.221,370.759L289.655,420.193z"/>
<path style="fill:#CCB375;" d="M289.655,420.193l-49.434-49.434l148.303-148.303V35.31c0-9.71-7.945-17.655-17.655-17.655H264.938
	V8.828c0-5.297-3.531-8.828-8.828-8.828H132.524c-5.297,0-8.828,3.531-8.828,8.828v8.828H17.766C8.055,17.655,0.11,25.6,0.11,35.31
	v459.034c0,9.71,7.945,17.655,17.655,17.655h353.103c9.71,0,17.655-7.945,17.655-17.655V322.207L289.655,420.193z"/>
<path style="fill:#ECF0F1;" d="M289.655,420.193l-49.434-49.434l112.993-112.993V61.793c0-5.297-3.531-8.828-8.828-8.828h-79.448
	v8.828c0,5.297-3.531,8.828-8.828,8.828H132.524c-5.297,0-8.828-3.531-8.828-8.828v-8.828H44.248c-5.297,0-8.828,3.531-8.828,8.828
	v406.069c0,5.297,3.531,8.828,8.828,8.828h300.138c5.297,0,8.828-3.531,8.828-8.828V357.517L289.655,420.193z"/>
<path style="fill:#AF9762;" d="M256.11,70.621H132.524c-5.297,0-8.828-3.531-8.828-8.828V8.828c0-5.297,3.531-8.828,8.828-8.828
	H256.11c5.297,0,8.828,3.531,8.828,8.828v52.966C264.938,67.09,261.407,70.621,256.11,70.621"/>
<polygon style="fill:#E6E7E8;" points="483.862,226.869 445.903,264.828 396.469,214.51 433.545,177.434 "/>
<path style="fill:#EEDDC8;" d="M242.869,438.731l46.786-17.655l-49.434-50.317l-17.655,46.786
	C217.269,430.786,229.628,444.028,242.869,438.731"/>
<g>
	<path style="fill:#79683B;" d="M238.455,141.241h-88.276c-5.297,0-8.828-3.531-8.828-8.828c0-5.297,3.531-8.828,8.828-8.828h88.276
		c5.297,0,8.828,3.531,8.828,8.828C247.283,137.71,243.752,141.241,238.455,141.241z"/>
	<path style="fill:#79683B;" d="M300.248,194.207h-52.965c-5.297,0-8.828-3.531-8.828-8.828s3.531-8.828,8.828-8.828h52.965
		c5.297,0,8.828,3.531,8.828,8.828S305.545,194.207,300.248,194.207z"/>
	<path style="fill:#79683B;" d="M211.972,194.207H88.386c-5.297,0-8.828-3.531-8.828-8.828s3.531-8.828,8.828-8.828h123.586
		c5.297,0,8.828,3.531,8.828,8.828S217.269,194.207,211.972,194.207z"/>
	<path style="fill:#79683B;" d="M300.248,229.517h-26.483c-5.297,0-8.828-3.531-8.828-8.828s3.531-8.828,8.828-8.828h26.483
		c5.297,0,8.828,3.531,8.828,8.828S305.545,229.517,300.248,229.517z"/>
	<path style="fill:#79683B;" d="M238.455,229.517h-70.621c-5.297,0-8.828-3.531-8.828-8.828s3.531-8.828,8.828-8.828h70.621
		c5.297,0,8.828,3.531,8.828,8.828S243.752,229.517,238.455,229.517z"/>
	<path style="fill:#79683B;" d="M132.524,229.517H88.386c-5.297,0-8.828-3.531-8.828-8.828s3.531-8.828,8.828-8.828h44.138
		c5.297,0,8.828,3.531,8.828,8.828S137.821,229.517,132.524,229.517z"/>
	<path style="fill:#79683B;" d="M300.248,264.828h-70.621c-5.297,0-8.828-3.531-8.828-8.828c0-5.297,3.531-8.828,8.828-8.828h70.621
		c5.297,0,8.828,3.531,8.828,8.828C309.076,261.297,305.545,264.828,300.248,264.828z"/>
	<path style="fill:#79683B;" d="M194.317,264.828h-52.966c-5.297,0-8.828-3.531-8.828-8.828c0-5.297,3.531-8.828,8.828-8.828h52.966
		c5.297,0,8.828,3.531,8.828,8.828C203.145,261.297,199.614,264.828,194.317,264.828z"/>
	<path style="fill:#79683B;" d="M106.041,264.828H88.386c-5.297,0-8.828-3.531-8.828-8.828c0-5.297,3.531-8.828,8.828-8.828h17.655
		c5.297,0,8.828,3.531,8.828,8.828C114.869,261.297,111.338,264.828,106.041,264.828z"/>
	<path style="fill:#79683B;" d="M247.283,300.138h-52.966c-5.297,0-8.828-3.531-8.828-8.828s3.531-8.828,8.828-8.828h52.966
		c5.297,0,8.828,3.531,8.828,8.828S252.579,300.138,247.283,300.138z"/>
	<path style="fill:#79683B;" d="M159.007,300.138H88.386c-5.297,0-8.828-3.531-8.828-8.828s3.531-8.828,8.828-8.828h70.621
		c5.297,0,8.828,3.531,8.828,8.828S164.303,300.138,159.007,300.138z"/>
	<path style="fill:#79683B;" d="M211.972,335.448h-70.621c-5.297,0-8.828-3.531-8.828-8.828s3.531-8.828,8.828-8.828h70.621
		c5.297,0,8.828,3.531,8.828,8.828S217.269,335.448,211.972,335.448z"/>
	<path style="fill:#79683B;" d="M106.041,335.448H88.386c-5.297,0-8.828-3.531-8.828-8.828s3.531-8.828,8.828-8.828h17.655
		c5.297,0,8.828,3.531,8.828,8.828S111.338,335.448,106.041,335.448z"/>
	<path style="fill:#79683B;" d="M185.49,370.759h-17.655c-5.297,0-8.828-3.531-8.828-8.828s3.531-8.828,8.828-8.828h17.655
		c5.297,0,8.828,3.531,8.828,8.828S190.786,370.759,185.49,370.759z"/>
	<path style="fill:#79683B;" d="M132.524,370.759H88.386c-5.297,0-8.828-3.531-8.828-8.828s3.531-8.828,8.828-8.828h44.138
		c5.297,0,8.828,3.531,8.828,8.828S137.821,370.759,132.524,370.759z"/>
</g>
<path style="fill:#D75A4A;" d="M505.931,204.8c7.945-7.945,7.945-22.069,0-30.014l-16.772-16.772c-9.71-9.71-25.6-9.71-35.31,0
	l-19.421,19.421l50.317,50.317"/>
<g>
</g>
<g>
</g>
<g>
</g>
<g>
</g>
<g>
</g>
<g>
</g>
<g>
</g>
<g>
</g>
<g>
</g>
<g>
</g>
<g>
</g>
<g>
</g>
<g>
</g>
<g>
</g>
<g>
</g>
</svg>
